<?xml version="1.0" encoding="utf-8"?>
<!-- Generator: Adobe Illustrator 27.8.0, SVG Export Plug-In . SVG Version: 6.00 Build 0)  -->
<svg version="1.1" id="Ebene_1" xmlns="http://www.w3.org/2000/svg" xmlns:xlink="http://www.w3.org/1999/xlink" x="0px" y="0px"
	 viewBox="0 0 179.15 68.03" style="enable-background:new 0 0 179.15 68.03;" xml:space="preserve">
<style type="text/css">
	.st0{clip-path:url(#SVGID_00000000942096802987502090000005180734033631431862_);fill:#575756;}
	.st1{clip-path:url(#SVGID_00000000942096802987502090000005180734033631431862_);fill:#FFFFFF;}
	.st2{clip-path:url(#SVGID_00000177472801878983441130000014014874058425874340_);fill:#575756;}
	.st3{clip-path:url(#SVGID_00000177472801878983441130000014014874058425874340_);fill:#FFFFFF;}
	.st4{clip-path:url(#SVGID_00000177472801878983441130000014014874058425874340_);}
	.st5{clip-path:url(#SVGID_00000179644773466448802340000013052589481739221664_);fill:#FFFFFF;}
	.st6{clip-path:url(#SVGID_00000059296942793382976060000003271099527615957896_);fill:#FFFFFF;}
	.st7{clip-path:url(#SVGID_00000059296942793382976060000003271099527615957896_);fill:#575756;}
	.st8{clip-path:url(#SVGID_00000059296942793382976060000003271099527615957896_);}
	.st9{clip-path:url(#SVGID_00000000935053444915957390000013818616629735804315_);fill:#575756;}
	.st10{clip-path:url(#SVGID_00000065042008634253345480000015717202039340204712_);fill:#FFFFFF;}
	.st11{clip-path:url(#SVGID_00000042726861490752856300000013390853352440322488_);fill:#575756;}
	.st12{clip-path:url(#SVGID_00000042726861490752856300000013390853352440322488_);fill:#FFFFFF;}
	.st13{clip-path:url(#SVGID_00000042726861490752856300000013390853352440322488_);}
	.st14{clip-path:url(#SVGID_00000009587796187133204800000007802608268035471270_);fill:#FFFFFF;}
	.st15{clip-path:url(#SVGID_00000040542577482271882360000010588329901344412311_);fill:#575756;}
	.st16{clip-path:url(#SVGID_00000040542577482271882360000010588329901344412311_);fill:#FFFFFF;}
	.st17{clip-path:url(#SVGID_00000040542577482271882360000010588329901344412311_);fill:#5183C0;}
	.st18{clip-path:url(#SVGID_00000040542577482271882360000010588329901344412311_);}
	.st19{clip-path:url(#SVGID_00000001653555423344508860000004694711736537914768_);fill:#FFFFFF;}
	.st20{clip-path:url(#SVGID_00000008841541046616989080000014638047053442384041_);fill:#575756;}
	.st21{clip-path:url(#SVGID_00000008841541046616989080000014638047053442384041_);fill:#FFFFFF;}
	.st22{clip-path:url(#SVGID_00000008841541046616989080000014638047053442384041_);fill:#5183C0;}
	.st23{clip-path:url(#SVGID_00000008841541046616989080000014638047053442384041_);}
	.st24{clip-path:url(#SVGID_00000031171124462362797730000016194475243039443387_);fill:#FFFFFF;}
	.st25{clip-path:url(#SVGID_00000128482762908450089610000002501423588198838440_);fill:#575756;}
	.st26{clip-path:url(#SVGID_00000128482762908450089610000002501423588198838440_);fill:#FFFFFF;}
	.st27{clip-path:url(#SVGID_00000128482762908450089610000002501423588198838440_);fill:#F6A500;}
	.st28{clip-path:url(#SVGID_00000128482762908450089610000002501423588198838440_);}
	.st29{clip-path:url(#SVGID_00000085949058890191097190000009281848869769197748_);fill:#FFFFFF;}
	.st30{clip-path:url(#SVGID_00000063601966660324402530000011727769155560109728_);fill:#575756;}
	.st31{clip-path:url(#SVGID_00000063601966660324402530000011727769155560109728_);fill:#FFFFFF;}
	.st32{clip-path:url(#SVGID_00000063601966660324402530000011727769155560109728_);fill:#F6A500;}
	.st33{clip-path:url(#SVGID_00000063601966660324402530000011727769155560109728_);}
	.st34{clip-path:url(#SVGID_00000108268575036396671580000016819415197772004793_);fill:#FFFFFF;}
	.st35{clip-path:url(#SVGID_00000145754393393433642710000007076962974668044454_);fill:#575756;}
	.st36{clip-path:url(#SVGID_00000145754393393433642710000007076962974668044454_);fill:#FFFFFF;}
	.st37{clip-path:url(#SVGID_00000145754393393433642710000007076962974668044454_);fill:#E9515A;}
	.st38{clip-path:url(#SVGID_00000145754393393433642710000007076962974668044454_);}
	.st39{clip-path:url(#SVGID_00000006708215294098789720000012753424521778426772_);fill:#FFFFFF;}
	.st40{clip-path:url(#SVGID_00000002370589444477010810000005104483534877450658_);fill:#575756;}
	.st41{clip-path:url(#SVGID_00000002370589444477010810000005104483534877450658_);fill:#FFFFFF;}
	.st42{clip-path:url(#SVGID_00000002370589444477010810000005104483534877450658_);fill:#E9515A;}
	.st43{clip-path:url(#SVGID_00000002370589444477010810000005104483534877450658_);}
	.st44{clip-path:url(#SVGID_00000037669830126909591350000001907485699896545424_);fill:#FFFFFF;}
	.st45{clip-path:url(#SVGID_00000114072677304764016140000011505371946232217007_);fill:#575756;}
	.st46{clip-path:url(#SVGID_00000114072677304764016140000011505371946232217007_);fill:#FFFFFF;}
	.st47{clip-path:url(#SVGID_00000114072677304764016140000011505371946232217007_);fill:#00A9D3;}
	.st48{clip-path:url(#SVGID_00000114072677304764016140000011505371946232217007_);}
	.st49{clip-path:url(#SVGID_00000075866179724173633380000000355328570553631396_);fill:#FFFFFF;}
	.st50{clip-path:url(#SVGID_00000148640321092989621920000006614448176671910314_);fill:#575756;}
	.st51{clip-path:url(#SVGID_00000148640321092989621920000006614448176671910314_);fill:#FFFFFF;}
	.st52{clip-path:url(#SVGID_00000148640321092989621920000006614448176671910314_);fill:#00A9D3;}
	.st53{clip-path:url(#SVGID_00000148640321092989621920000006614448176671910314_);}
	.st54{clip-path:url(#SVGID_00000113327186746883416700000012166006104997120435_);fill:#FFFFFF;}
	.st55{clip-path:url(#SVGID_00000054980964169453192570000001402067679043268756_);fill:#575756;}
	.st56{clip-path:url(#SVGID_00000054980964169453192570000001402067679043268756_);fill:#FFFFFF;}
	.st57{clip-path:url(#SVGID_00000054980964169453192570000001402067679043268756_);fill:#927BB7;}
	.st58{clip-path:url(#SVGID_00000054980964169453192570000001402067679043268756_);}
	.st59{clip-path:url(#SVGID_00000013173367649072725600000004862067877702261685_);fill:#FFFFFF;}
	.st60{clip-path:url(#SVGID_00000170267211423605107100000005892309145575113633_);fill:#575756;}
	.st61{clip-path:url(#SVGID_00000170267211423605107100000005892309145575113633_);fill:#FFFFFF;}
	.st62{clip-path:url(#SVGID_00000170267211423605107100000005892309145575113633_);fill:#927BB7;}
	.st63{clip-path:url(#SVGID_00000170267211423605107100000005892309145575113633_);}
	.st64{clip-path:url(#SVGID_00000011720105701512527080000007784254238072668041_);fill:#FFFFFF;}
	.st65{clip-path:url(#SVGID_00000079483381843831364940000004722880104294427809_);fill:#575756;}
	.st66{clip-path:url(#SVGID_00000079483381843831364940000004722880104294427809_);fill:#FFFFFF;}
	.st67{clip-path:url(#SVGID_00000079483381843831364940000004722880104294427809_);fill:#B9C243;}
	.st68{clip-path:url(#SVGID_00000079483381843831364940000004722880104294427809_);}
	.st69{clip-path:url(#SVGID_00000074421463450609121590000007022728589504563072_);fill:#FFFFFF;}
	.st70{clip-path:url(#SVGID_00000014626315304733964470000000075268913904774561_);fill:#575756;}
	.st71{clip-path:url(#SVGID_00000014626315304733964470000000075268913904774561_);fill:#FFFFFF;}
	.st72{clip-path:url(#SVGID_00000014626315304733964470000000075268913904774561_);fill:#B9C243;}
	.st73{clip-path:url(#SVGID_00000014626315304733964470000000075268913904774561_);}
	.st74{clip-path:url(#SVGID_00000086689619599050432310000001918263144707524259_);fill:#FFFFFF;}
	.st75{clip-path:url(#SVGID_00000036961469632047695020000004786221404649821877_);fill:#575756;}
	.st76{clip-path:url(#SVGID_00000036961469632047695020000004786221404649821877_);fill:#FFFFFF;}
	.st77{clip-path:url(#SVGID_00000036961469632047695020000004786221404649821877_);fill:#AF708B;}
	.st78{clip-path:url(#SVGID_00000036961469632047695020000004786221404649821877_);}
	.st79{clip-path:url(#SVGID_00000136409112544997018600000010723973669440108478_);fill:#FFFFFF;}
	.st80{clip-path:url(#SVGID_00000103978013698398490930000008134761677722623926_);fill:#575756;}
	.st81{clip-path:url(#SVGID_00000103978013698398490930000008134761677722623926_);fill:#FFFFFF;}
	.st82{clip-path:url(#SVGID_00000103978013698398490930000008134761677722623926_);fill:#AF708B;}
	.st83{clip-path:url(#SVGID_00000103978013698398490930000008134761677722623926_);}
	.st84{clip-path:url(#SVGID_00000138548763587213492240000015776574878975156100_);fill:#FFFFFF;}
	.st85{clip-path:url(#SVGID_00000119118461663993451220000013137689930271350415_);fill:#FFFFFF;}
</style>
<g>
	<g>
		<defs>
			<rect id="SVGID_00000038415227300394270730000011749595991073180316_" width="179.15" height="68.03"/>
		</defs>
		<clipPath id="SVGID_00000156555799261054226310000008568047013743876531_">
			<use xlink:href="#SVGID_00000038415227300394270730000011749595991073180316_"  style="overflow:visible;"/>
		</clipPath>
		
			<rect y="0" style="clip-path:url(#SVGID_00000156555799261054226310000008568047013743876531_);fill:#575756;" width="75.68" height="34.02"/>
		<path style="clip-path:url(#SVGID_00000156555799261054226310000008568047013743876531_);fill:#FFFFFF;" d="M58.95,16.68
			l6.94,11.38H70l-6.94-11.38l6.78-10.73h-4.1L58.95,16.68z M32.42,5.95l5.4,22.11h3.79l4.26-17.92l4.25,17.92h3.78L59.3,5.95h-3.79
			l-3.55,17.73L47.75,5.95h-3.79l-4.2,17.73L36.21,5.95H32.42z M28.32,5.95l-6.25,22.11h3.79l2.32-8.23h5.39l-0.76-3.15h-3.74
			l3.03-10.73H28.32z M9.42,17.96h8.2v10.1h3.47V5.95h-3.47v8.83h-8.2V5.95H5.95v22.11h3.47V17.96z"/>
		<polygon style="clip-path:url(#SVGID_00000156555799261054226310000008568047013743876531_);fill:#B9C243;" points="157.32,51.02 
			157.32,36.85 127.84,36.85 127.84,22.68 78.52,22.68 78.52,36.85 50.17,36.85 50.17,51.02 		"/>
		
			<rect x="129.26" y="53.86" style="clip-path:url(#SVGID_00000156555799261054226310000008568047013743876531_);fill:#575756;" width="49.89" height="14.17"/>
		<g style="clip-path:url(#SVGID_00000156555799261054226310000008568047013743876531_);">
			<defs>
				<rect id="SVGID_00000114755194045854772850000015773769788593441922_" y="0" width="179.15" height="68.03"/>
			</defs>
			<clipPath id="SVGID_00000061437811490272705500000005811798063736897676_">
				<use xlink:href="#SVGID_00000114755194045854772850000015773769788593441922_"  style="overflow:visible;"/>
			</clipPath>
			<path style="clip-path:url(#SVGID_00000061437811490272705500000005811798063736897676_);fill:#FFFFFF;" d="M153.72,47.25
				l-0.17-0.8c-0.24,0.07-0.36,0.1-0.48,0.1c-0.46,0-0.58-0.17-0.58-0.82v-2.57h0.86l0.34-0.92h-1.2c0-0.52,0.03-1.08,0.08-1.55
				l-1.36,0.34c-0.05,0.38-0.05,0.71-0.05,1.21h-0.51v0.92h0.51v2.78c0,0.47,0.01,0.57,0.09,0.79c0.16,0.45,0.7,0.75,1.38,0.75
				C152.98,47.48,153.33,47.41,153.72,47.25 M149.46,47.36v-3.74c0-0.32-0.03-0.54-0.1-0.73c-0.16-0.44-0.66-0.74-1.23-0.74
				c-0.3,0-0.65,0.08-0.92,0.22c-0.22,0.12-0.39,0.24-0.59,0.38c0-0.21-0.07-0.43-0.19-0.64l-1.19,0.34
				c0.12,0.34,0.18,0.76,0.18,1.2v3.71h1.34v-3.62c0.31-0.28,0.66-0.46,0.93-0.46c0.35,0,0.45,0.17,0.45,0.75v3.33H149.46z
				 M142.78,44.24h-1.55v-0.02c0-0.71,0.29-1.11,0.8-1.11c0.27,0,0.46,0.1,0.59,0.3c0.12,0.19,0.16,0.39,0.16,0.77V44.24z
				 M144.17,45.22v-0.31c0-1.07-0.21-1.76-0.68-2.24c-0.33-0.34-0.89-0.54-1.48-0.54c-0.68,0-1.19,0.22-1.61,0.69
				c-0.45,0.5-0.64,1.11-0.64,2.03c0,1.61,0.95,2.65,2.42,2.65c0.72,0,1.34-0.23,1.93-0.71l-0.52-0.8c-0.41,0.34-0.84,0.51-1.3,0.51
				c-0.69,0-1.08-0.45-1.08-1.24v-0.04H144.17z M138.76,47.36v-3.64c0-0.7-0.09-1-0.38-1.25c-0.23-0.2-0.61-0.32-1.01-0.32
				c-0.56,0-0.98,0.19-1.45,0.67c-0.06-0.09-0.13-0.18-0.2-0.25c-0.27-0.28-0.62-0.42-1.04-0.42c-0.47,0-0.9,0.18-1.25,0.52
				c-0.05-0.26-0.09-0.38-0.18-0.52l-1.21,0.33c0.14,0.25,0.19,0.57,0.19,1.31v3.57h1.31v-3.73c0.29-0.26,0.63-0.39,0.88-0.39
				c0.37,0,0.46,0.15,0.46,0.79v3.33h1.27v-3.68c0.29-0.26,0.64-0.43,0.89-0.43c0.35,0,0.42,0.12,0.42,0.73v3.38H138.76z
				 M129.59,44.24h-1.55v-0.02c0-0.71,0.29-1.11,0.8-1.11c0.27,0,0.46,0.1,0.59,0.3c0.12,0.19,0.16,0.39,0.16,0.77V44.24z
				 M130.98,45.22v-0.31c0-1.07-0.21-1.76-0.68-2.24c-0.33-0.34-0.89-0.54-1.48-0.54c-0.68,0-1.19,0.22-1.61,0.69
				c-0.45,0.5-0.64,1.11-0.64,2.03c0,1.61,0.95,2.65,2.42,2.65c0.72,0,1.34-0.23,1.93-0.71l-0.52-0.8c-0.41,0.34-0.84,0.51-1.3,0.51
				c-0.69,0-1.08-0.45-1.08-1.24v-0.04H130.98z M123.84,43.89c0,0.47-0.29,0.73-0.82,0.73c-0.47,0-0.79-0.21-0.79-0.73
				c0-0.48,0.29-0.76,0.8-0.76C123.54,43.13,123.84,43.41,123.84,43.89z M126.21,42.8l-0.56-0.85c-0.31,0.28-0.69,0.44-1.06,0.44
				c-0.17,0-0.35-0.04-0.63-0.11c-0.37-0.09-0.63-0.13-0.92-0.13c-1.31,0-2.16,0.68-2.16,1.73c0,0.76,0.36,1.23,1.1,1.42
				c-0.84,0.22-0.94,0.53-0.94,0.86c0,0.35,0.15,0.58,0.39,0.67c0.24,0.1,0.63,0.15,1.23,0.16l0.57,0.01
				c0.53,0.01,0.94,0.15,0.94,0.61c0,0.21-0.13,0.4-0.33,0.52c-0.21,0.13-0.5,0.17-0.84,0.17c-0.62,0-0.96-0.22-0.96-0.63
				c0-0.14,0.01-0.21,0.06-0.33h-1.24c-0.05,0.1-0.12,0.24-0.12,0.52c0,0.35,0.14,0.65,0.42,0.91c0.46,0.43,1.21,0.55,1.94,0.55
				c0.8,0,1.57-0.18,2.02-0.66c0.28-0.3,0.41-0.63,0.41-1.06c0-0.46-0.14-0.81-0.44-1.09c-0.36-0.33-0.77-0.45-1.55-0.46l-0.72-0.01
				c-0.14,0-0.22-0.05-0.22-0.12c0-0.14,0.19-0.26,0.53-0.42c0.1,0.01,0.14,0.01,0.2,0.01c1.09,0,1.89-0.64,1.89-1.52
				c0-0.34-0.1-0.6-0.3-0.84c0.08,0.01,0.22,0.03,0.35,0.03C125.64,43.18,125.92,43.07,126.21,42.8 M118.31,45.12l-0.02,1.1
				c-0.2,0.22-0.45,0.35-0.7,0.35c-0.34,0-0.59-0.27-0.59-0.67c0-0.61,0.32-0.78,1.25-0.78H118.31z M120.1,46.8
				c-0.45-0.34-0.49-0.58-0.48-1.14l0.03-1.72c0.01-0.55-0.02-0.71-0.09-0.92c-0.2-0.57-0.79-0.89-1.65-0.89
				c-0.47,0-0.9,0.09-1.4,0.3c-0.36,0.15-0.56,0.25-0.83,0.42l0.57,0.96c0.55-0.37,1.05-0.58,1.48-0.58c0.49,0,0.6,0.19,0.6,0.76
				v0.21c-0.11-0.01-0.2-0.01-0.3-0.01c-1.63,0-2.46,0.56-2.46,1.76c0,1.02,0.62,1.6,1.76,1.6c0.42,0,0.78-0.1,1.03-0.28
				c0.1-0.07,0.21-0.17,0.31-0.27c0.13,0.26,0.41,0.49,0.72,0.62L120.1,46.8z M114.32,47.36v-3.74c0-0.32-0.03-0.54-0.1-0.73
				c-0.16-0.44-0.66-0.74-1.23-0.74c-0.3,0-0.65,0.08-0.92,0.22c-0.22,0.12-0.39,0.24-0.59,0.38c0-0.21-0.07-0.43-0.19-0.64
				l-1.19,0.34c0.12,0.34,0.18,0.76,0.18,1.2v3.71h1.34v-3.62c0.31-0.28,0.66-0.46,0.93-0.46c0.35,0,0.45,0.17,0.45,0.75v3.33
				H114.32z M107.45,45.12l-0.02,1.1c-0.2,0.22-0.45,0.35-0.7,0.35c-0.34,0-0.59-0.27-0.59-0.67c0-0.61,0.32-0.78,1.25-0.78H107.45z
				 M109.24,46.8c-0.45-0.34-0.49-0.58-0.48-1.14l0.03-1.72c0.01-0.55-0.02-0.71-0.09-0.92c-0.2-0.57-0.79-0.89-1.65-0.89
				c-0.47,0-0.9,0.09-1.4,0.3c-0.36,0.15-0.56,0.25-0.83,0.42l0.57,0.96c0.55-0.37,1.05-0.58,1.48-0.58c0.49,0,0.6,0.19,0.6,0.76
				v0.21c-0.11-0.01-0.2-0.01-0.3-0.01c-1.63,0-2.46,0.56-2.46,1.76c0,1.02,0.62,1.6,1.76,1.6c0.42,0,0.78-0.1,1.03-0.28
				c0.1-0.07,0.21-0.17,0.31-0.27c0.13,0.26,0.41,0.49,0.72,0.62L109.24,46.8z M103.61,47.36l-0.62-6.95h-1.78l-0.94,3.45
				c-0.11,0.41-0.19,0.77-0.25,1.13c-0.06-0.36-0.11-0.6-0.24-1.1l-0.91-3.48h-1.79l-0.65,6.95h1.39l0.24-3.63
				c0.03-0.43,0.05-0.84,0.05-1.25c0.07,0.4,0.19,0.89,0.28,1.23l0.99,3.65h1.19l1.1-3.8c0.12-0.42,0.18-0.67,0.26-1.07
				c0,0.37,0.02,0.72,0.05,1.16l0.26,3.71H103.61z M91.94,44.24h-1.55v-0.02c0-0.71,0.29-1.11,0.8-1.11c0.27,0,0.46,0.1,0.59,0.3
				c0.12,0.19,0.16,0.39,0.16,0.77V44.24z M93.33,45.22v-0.31c0-1.07-0.21-1.76-0.68-2.24c-0.33-0.34-0.89-0.54-1.48-0.54
				c-0.68,0-1.19,0.22-1.61,0.69c-0.45,0.5-0.64,1.11-0.64,2.03c0,1.61,0.95,2.65,2.42,2.65c0.72,0,1.34-0.23,1.93-0.71l-0.52-0.8
				c-0.41,0.34-0.84,0.51-1.3,0.51c-0.69,0-1.08-0.45-1.08-1.24v-0.04H93.33z M88.32,46.78l-0.61-0.81l-0.08,0.07
				c-0.33,0.29-0.61,0.42-0.92,0.42c-0.23,0-0.46-0.11-0.6-0.29c-0.17-0.22-0.26-0.62-0.26-1.29c0-1.2,0.27-1.72,0.87-1.72
				c0.25,0,0.54,0.15,0.81,0.4l0.65-0.88c-0.22-0.19-0.31-0.26-0.5-0.36c-0.28-0.15-0.65-0.23-0.99-0.23
				c-0.43,0-0.93,0.15-1.27,0.38c-0.6,0.41-1.05,1.19-1.05,2.37c0,1.66,0.82,2.64,2.23,2.64c0.49,0,0.89-0.11,1.25-0.32
				C88.03,47.05,88.12,46.98,88.32,46.78 M83.82,42.23c-0.21-0.09-0.3-0.11-0.5-0.11c-0.5,0-0.91,0.34-1.2,0.73
				c-0.02-0.29-0.09-0.52-0.21-0.73l-1.2,0.32c0.11,0.29,0.19,0.81,0.19,1.5v3.42h1.34v-3.62c0.25-0.29,0.52-0.43,0.82-0.43
				c0.15,0,0.26,0.03,0.39,0.1L83.82,42.23z M79.61,46.96c-0.2-0.24-0.31-0.59-0.31-0.93v-3.91l-1.28,0.27v3.6
				c-0.1,0.25-0.5,0.49-0.83,0.49c-0.2,0-0.4-0.1-0.47-0.24s-0.11-0.38-0.11-0.84v-3.29l-1.32,0.25v3.28c0,0.52,0.03,0.79,0.11,1.02
				c0.17,0.49,0.79,0.83,1.51,0.83c0.54,0,1.02-0.17,1.35-0.49c0.09,0.21,0.23,0.38,0.4,0.5L79.61,46.96z M72.78,44.77
				c0,1.21-0.25,1.73-0.83,1.73c-0.26,0-0.56-0.14-0.68-0.42c-0.11-0.26-0.17-0.7-0.17-1.29c0-0.51,0.05-0.87,0.14-1.14
				c0.11-0.32,0.37-0.52,0.69-0.52c0.24,0,0.45,0.1,0.58,0.27C72.69,43.63,72.78,44.08,72.78,44.77 M74.24,44.78
				c0-0.83-0.18-1.39-0.59-1.87c-0.44-0.52-1.01-0.77-1.74-0.77c-1.38,0-2.3,1.07-2.3,2.68c0,1.61,0.91,2.65,2.3,2.65
				c0.79,0,1.3-0.27,1.69-0.71C74.04,46.26,74.24,45.66,74.24,44.78 M68.86,45.74c0-0.34-0.09-0.63-0.28-0.87
				c-0.18-0.23-0.39-0.42-1.02-0.58l-0.62-0.16c-0.47-0.12-0.64-0.26-0.64-0.52c0-0.3,0.26-0.5,0.65-0.5c0.38,0,0.75,0.11,1.26,0.37
				l0.44-0.9c-0.47-0.23-1.01-0.48-1.83-0.48c-1.19,0-1.98,0.67-1.98,1.67c0,0.33,0.11,0.7,0.29,0.92c0.18,0.22,0.6,0.46,0.94,0.52
				l0.6,0.11c0.54,0.1,0.79,0.28,0.79,0.63c0,0.33-0.3,0.58-0.68,0.58c-0.58,0-1.29-0.33-1.7-0.58l-0.48,0.98
				c0.75,0.39,1.44,0.59,2.07,0.59C67.98,47.52,68.86,46.8,68.86,45.74 M62.46,44.24h-1.55v-0.02c0-0.71,0.29-1.11,0.8-1.11
				c0.27,0,0.46,0.1,0.59,0.3c0.12,0.19,0.16,0.39,0.16,0.77V44.24z M63.85,45.22v-0.31c0-1.07-0.21-1.76-0.68-2.24
				c-0.33-0.34-0.89-0.54-1.48-0.54c-0.68,0-1.19,0.22-1.61,0.69c-0.45,0.5-0.64,1.11-0.64,2.03c0,1.61,0.95,2.65,2.42,2.65
				c0.72,0,1.34-0.23,1.93-0.71l-0.52-0.8c-0.41,0.34-0.84,0.51-1.3,0.51c-0.69,0-1.08-0.45-1.08-1.24v-0.04H63.85z M57.06,42.48
				c0,0.29-0.1,0.54-0.27,0.7c-0.19,0.17-0.45,0.23-1.05,0.23h-0.47v-1.88h0.5c0.34,0,0.63,0.04,0.79,0.1
				C56.89,41.75,57.06,42.05,57.06,42.48 M58.94,47.36c-0.25-0.44-1.31-2.25-1.67-2.7c-0.09-0.12-0.15-0.18-0.29-0.29
				c0.86-0.02,1.55-0.88,1.55-1.92c0-1.22-0.81-2.04-2.04-2.04H53.9v6.95h1.37v-2.9c0.09,0.01,0.15,0.03,0.22,0.06
				c0.25,0.11,0.46,0.45,1.15,1.7c0.27,0.49,0.38,0.68,0.65,1.14H58.94z"/>
			<path style="clip-path:url(#SVGID_00000061437811490272705500000005811798063736897676_);fill:#FFFFFF;" d="M124.44,26.09
				c-0.41-0.23-0.77-0.32-1.21-0.32c-1.05,0-1.65,0.58-1.65,1.59c0,0.23,0.02,0.49,0.05,0.7h-0.49v0.92h0.46v4.2h1.31v-4.2h0.95
				l0.34-0.92h-1.3v-0.73c0-0.37,0.22-0.58,0.56-0.58c0.16,0,0.26,0.03,0.55,0.17L124.44,26.09z M118.79,30.59
				c0,1.21-0.25,1.73-0.83,1.73c-0.26,0-0.56-0.14-0.68-0.42c-0.11-0.26-0.17-0.7-0.17-1.29c0-0.51,0.05-0.87,0.14-1.14
				c0.11-0.32,0.37-0.52,0.69-0.52c0.24,0,0.45,0.1,0.58,0.27C118.7,29.45,118.79,29.9,118.79,30.59 M120.25,30.6
				c0-0.83-0.18-1.39-0.59-1.87c-0.44-0.52-1.01-0.77-1.74-0.77c-1.38,0-2.3,1.07-2.3,2.68c0,1.61,0.91,2.65,2.3,2.65
				c0.79,0,1.3-0.27,1.69-0.71C120.05,32.08,120.25,31.48,120.25,30.6 M113.07,28.06h-1.41l-0.77,2.44
				c-0.08,0.24-0.16,0.54-0.2,0.71c-0.06,0.25-0.16,0.79-0.16,0.82l-0.27-1.06l-0.89-2.99L108,28.14l1.69,5.04h0.34
				c-0.12,0.3-0.16,0.39-0.29,0.6c-0.11,0.17-0.23,0.31-0.38,0.42c-0.2,0.14-0.54,0.26-0.83,0.34l0.46,0.88
				c0.46-0.06,0.9-0.22,1.24-0.47c0.37-0.27,0.63-0.7,0.98-1.69L113.07,28.06z M107.6,33.07l-0.17-0.8c-0.24,0.07-0.36,0.1-0.48,0.1
				c-0.46,0-0.58-0.17-0.58-0.82v-2.57h0.86l0.34-0.92h-1.2c0-0.52,0.03-1.08,0.08-1.55l-1.36,0.34c-0.05,0.38-0.05,0.71-0.05,1.21
				h-0.51v0.92h0.51v2.78c0,0.47,0.01,0.57,0.09,0.79c0.16,0.45,0.7,0.75,1.38,0.75C106.86,33.3,107.21,33.23,107.6,33.07
				 M103.88,33.16l-0.23-0.8c-0.07,0.02-0.1,0.02-0.15,0.02c-0.11,0-0.22-0.05-0.27-0.14c-0.08-0.14-0.09-0.26-0.09-1.14v-3.99
				c0-0.72-0.02-1.05-0.07-1.33l-1.37,0.31c0.05,0.46,0.07,0.87,0.07,1.54v3.82c0,0.73,0.02,0.89,0.12,1.15
				c0.16,0.43,0.62,0.7,1.19,0.7C103.37,33.3,103.65,33.25,103.88,33.16 M100.63,32.78c-0.2-0.24-0.31-0.59-0.31-0.93v-3.91
				l-1.28,0.27v3.6c-0.1,0.25-0.5,0.49-0.83,0.49c-0.2,0-0.4-0.1-0.47-0.24s-0.11-0.38-0.11-0.84v-3.29l-1.32,0.25v3.28
				c0,0.52,0.03,0.79,0.11,1.02c0.17,0.49,0.79,0.83,1.51,0.83c0.54,0,1.02-0.17,1.35-0.49c0.09,0.21,0.23,0.38,0.4,0.5
				L100.63,32.78z M95.41,32.6l-0.61-0.81l-0.08,0.07c-0.33,0.29-0.61,0.42-0.92,0.42c-0.23,0-0.46-0.11-0.6-0.29
				c-0.17-0.22-0.26-0.62-0.26-1.29c0-1.2,0.27-1.72,0.87-1.72c0.25,0,0.54,0.15,0.81,0.4l0.65-0.88c-0.22-0.19-0.31-0.26-0.5-0.36
				c-0.28-0.15-0.65-0.23-0.99-0.23c-0.43,0-0.93,0.15-1.27,0.38c-0.6,0.41-1.05,1.19-1.05,2.37c0,1.66,0.82,2.64,2.23,2.64
				c0.49,0,0.89-0.11,1.25-0.32C95.12,32.87,95.21,32.8,95.41,32.6 M89.13,30.94l-0.02,1.1c-0.2,0.22-0.45,0.35-0.7,0.35
				c-0.34,0-0.59-0.27-0.59-0.67c0-0.61,0.32-0.78,1.25-0.78H89.13z M90.92,32.62c-0.45-0.34-0.49-0.58-0.48-1.14l0.03-1.72
				c0.01-0.55-0.02-0.71-0.09-0.92c-0.2-0.57-0.79-0.89-1.65-0.89c-0.47,0-0.9,0.09-1.4,0.3c-0.36,0.15-0.56,0.25-0.83,0.42
				l0.57,0.96c0.55-0.37,1.05-0.58,1.48-0.58c0.49,0,0.6,0.19,0.6,0.76v0.21c-0.11-0.01-0.2-0.01-0.3-0.01
				c-1.63,0-2.46,0.56-2.46,1.76c0,1.02,0.62,1.6,1.76,1.6c0.42,0,0.78-0.1,1.03-0.28c0.1-0.07,0.21-0.17,0.31-0.27
				c0.13,0.26,0.41,0.49,0.72,0.62L90.92,32.62z M86.02,26.23h-3.77v6.95h1.4v-3.09h1.77v-1.14h-1.77v-1.59h2.21L86.02,26.23z"/>
			<path style="clip-path:url(#SVGID_00000061437811490272705500000005811798063736897676_);fill:#FFFFFF;" d="M175.56,64.36v-3.74
				c0-0.32-0.03-0.54-0.1-0.73c-0.16-0.44-0.66-0.74-1.23-0.74c-0.3,0-0.65,0.08-0.92,0.22c-0.22,0.12-0.39,0.24-0.59,0.38
				c0-0.21-0.07-0.43-0.19-0.64l-1.19,0.34c0.12,0.34,0.18,0.76,0.18,1.2v3.71h1.34v-3.62c0.31-0.28,0.66-0.46,0.93-0.46
				c0.35,0,0.45,0.17,0.45,0.75v3.33H175.56z M168.91,61.25h-1.55v-0.02c0-0.71,0.29-1.11,0.8-1.11c0.27,0,0.46,0.1,0.59,0.3
				c0.12,0.19,0.16,0.39,0.16,0.77V61.25z M170.3,62.22v-0.31c0-1.07-0.21-1.76-0.68-2.24c-0.33-0.34-0.89-0.54-1.48-0.54
				c-0.68,0-1.19,0.22-1.61,0.69c-0.45,0.5-0.64,1.11-0.64,2.03c0,1.61,0.95,2.65,2.42,2.65c0.72,0,1.34-0.23,1.93-0.71l-0.52-0.8
				c-0.41,0.34-0.84,0.51-1.3,0.51c-0.69,0-1.08-0.45-1.08-1.24v-0.04H170.3z M163.29,60.9c0,0.47-0.29,0.73-0.82,0.73
				c-0.47,0-0.79-0.21-0.79-0.73c0-0.48,0.29-0.76,0.8-0.76C162.99,60.13,163.29,60.41,163.29,60.9L163.29,60.9z M165.65,59.81
				l-0.56-0.85c-0.31,0.28-0.69,0.44-1.06,0.44c-0.17,0-0.35-0.04-0.63-0.11c-0.37-0.09-0.63-0.13-0.92-0.13
				c-1.31,0-2.16,0.68-2.16,1.73c0,0.76,0.36,1.23,1.1,1.42c-0.84,0.22-0.94,0.53-0.94,0.86c0,0.35,0.15,0.58,0.39,0.67
				c0.24,0.1,0.63,0.15,1.23,0.16l0.57,0.01c0.53,0.01,0.94,0.15,0.94,0.61c0,0.21-0.13,0.4-0.33,0.52
				c-0.21,0.13-0.5,0.17-0.84,0.17c-0.62,0-0.96-0.22-0.96-0.63c0-0.14,0.01-0.21,0.06-0.33h-1.24c-0.05,0.1-0.12,0.24-0.12,0.52
				c0,0.35,0.14,0.65,0.42,0.91c0.46,0.43,1.21,0.55,1.94,0.55c0.8,0,1.57-0.18,2.02-0.66c0.28-0.3,0.41-0.63,0.41-1.06
				c0-0.46-0.14-0.81-0.44-1.09c-0.36-0.33-0.77-0.45-1.55-0.46l-0.72-0.01c-0.14,0-0.22-0.05-0.22-0.12c0-0.14,0.19-0.26,0.53-0.42
				c0.1,0.01,0.14,0.01,0.2,0.01c1.09,0,1.89-0.64,1.89-1.52c0-0.34-0.1-0.6-0.3-0.84c0.08,0.01,0.22,0.03,0.35,0.03
				C165.08,60.19,165.36,60.08,165.65,59.81 M159.11,64.36v-3.74c0-0.32-0.03-0.54-0.1-0.73c-0.16-0.44-0.66-0.74-1.23-0.74
				c-0.3,0-0.65,0.08-0.92,0.22c-0.22,0.12-0.39,0.24-0.59,0.38c0-0.21-0.07-0.43-0.19-0.64l-1.19,0.34
				c0.12,0.34,0.18,0.76,0.18,1.2v3.71h1.34v-3.62c0.31-0.28,0.66-0.46,0.93-0.46c0.35,0,0.45,0.17,0.45,0.75v3.33H159.11z
				 M153.81,57.84c0-0.46-0.36-0.83-0.81-0.83c-0.46,0-0.84,0.37-0.84,0.83c0,0.46,0.37,0.83,0.82,0.83
				C153.44,58.66,153.81,58.3,153.81,57.84 M153.65,64.36v-5.24l-1.34,0.21v5.03H153.65z M151.13,64.26l-0.17-0.8
				c-0.24,0.07-0.36,0.1-0.48,0.1c-0.46,0-0.58-0.17-0.58-0.82v-2.57h0.86l0.34-0.92h-1.2c0-0.52,0.03-1.08,0.08-1.55l-1.36,0.34
				c-0.05,0.38-0.05,0.71-0.05,1.21h-0.51v0.92h0.51v2.78c0,0.47,0.01,0.57,0.09,0.79c0.16,0.45,0.7,0.75,1.38,0.75
				C150.39,64.48,150.74,64.41,151.13,64.26 M147.45,64.26l-0.17-0.8c-0.24,0.07-0.36,0.1-0.48,0.1c-0.46,0-0.58-0.17-0.58-0.82
				v-2.57h0.86l0.34-0.92h-1.2c0-0.52,0.03-1.08,0.08-1.55l-1.36,0.34c-0.05,0.38-0.05,0.71-0.05,1.21h-0.51v0.92h0.51v2.78
				c0,0.47,0.01,0.57,0.09,0.79c0.16,0.45,0.7,0.75,1.38,0.75C146.71,64.48,147.06,64.41,147.45,64.26 M143.26,58.02
				c0-0.42-0.34-0.77-0.75-0.77c-0.42,0-0.78,0.35-0.78,0.77c0,0.42,0.35,0.77,0.76,0.77C142.91,58.78,143.26,58.44,143.26,58.02
				 M141.15,58.02c0-0.42-0.34-0.77-0.75-0.77c-0.42,0-0.78,0.35-0.78,0.77c0,0.42,0.35,0.77,0.76,0.77
				C140.8,58.78,141.15,58.44,141.15,58.02 M142.3,61.78c0,1.21-0.25,1.73-0.83,1.73c-0.26,0-0.56-0.14-0.68-0.42
				c-0.11-0.26-0.17-0.7-0.17-1.29c0-0.51,0.05-0.87,0.14-1.14c0.11-0.32,0.37-0.52,0.69-0.52c0.24,0,0.45,0.1,0.58,0.27
				C142.21,60.63,142.3,61.09,142.3,61.78 M143.76,61.79c0-0.83-0.18-1.39-0.59-1.87c-0.44-0.52-1.01-0.77-1.74-0.77
				c-1.38,0-2.3,1.07-2.3,2.68c0,1.61,0.91,2.65,2.3,2.65c0.79,0,1.3-0.27,1.69-0.71C143.56,63.27,143.76,62.67,143.76,61.79
				 M138.11,63.83v-3.32h-2.69l0.18,1.14h1.06v1.58c-0.23,0.12-0.48,0.17-0.79,0.17c-0.45,0-0.83-0.14-1.09-0.39
				c-0.35-0.35-0.52-0.99-0.52-1.98c0-1.04,0.12-1.79,0.59-2.24c0.24-0.23,0.59-0.35,1-0.35c0.53,0,1,0.17,1.45,0.54l0.74-0.87
				c-0.61-0.53-1.37-0.8-2.21-0.8c-0.66,0-1.18,0.15-1.69,0.49c-0.97,0.65-1.45,1.69-1.45,3.16c0,1.04,0.23,1.78,0.74,2.43
				c0.56,0.72,1.33,1.06,2.37,1.06C136.62,64.44,137.4,64.24,138.11,63.83"/>
		</g>
	</g>
</g>
</svg>
